<svg xmlns="http://www.w3.org/2000/svg" width="500" height="500" viewBox="0 0 500 500" version="1.1"><path d="M 230.500 49.452 C 228.300 50.258, 225.037 52.504, 223.250 54.444 L 220 57.971 220 74.827 C 220 84.498, 220.881 100.533, 222.066 112.443 C 223.202 123.860, 223.942 133.391, 223.710 133.623 C 223.478 133.856, 220.256 132.685, 216.551 131.023 C 212.845 129.360, 208.971 128, 207.942 128 C 206.913 128, 205.616 128.849, 205.060 129.888 C 204.460 131.009, 202.659 131.938, 200.621 132.176 C 197.294 132.564, 197.125 132.412, 194.928 127.038 C 193.683 123.992, 188.674 112.500, 183.798 101.500 C 178.922 90.500, 174.035 80.600, 172.938 79.500 C 171.308 77.865, 169.613 77.500, 163.649 77.500 C 157.520 77.500, 155.774 77.897, 152.730 79.983 C 150.737 81.348, 148.123 84.216, 146.920 86.356 C 145.076 89.637, 144.826 91.230, 145.321 96.530 C 145.643 99.986, 147.294 108.368, 148.990 115.157 C 150.685 121.945, 153.905 133.800, 156.146 141.500 C 158.386 149.200, 160.744 157.273, 161.386 159.440 C 162.415 162.913, 162.243 164.284, 159.935 171.020 C 158.302 175.785, 154.294 183.334, 149.284 191.080 C 144.867 197.911, 138.342 208.225, 134.785 214 C 131.228 219.775, 126.022 228.775, 123.216 234 C 120.410 239.225, 116.683 247.775, 114.933 253 C 112.506 260.250, 111.724 264.395, 111.633 270.500 C 111.567 274.970, 112.109 280.192, 112.863 282.336 C 113.605 284.445, 115.623 287.779, 117.347 289.743 C 119.072 291.707, 122.287 294.133, 124.491 295.135 C 126.696 296.137, 130.750 296.988, 133.500 297.026 C 138.453 297.095, 138.533 297.148, 142 302.633 C 143.925 305.679, 147.750 310.076, 150.500 312.404 C 153.250 314.732, 157.525 318.009, 160 319.687 C 162.475 321.364, 167.731 324.360, 171.680 326.345 C 175.629 328.330, 180.466 331.609, 182.430 333.630 C 184.393 335.652, 187.084 339.600, 188.409 342.403 C 189.734 345.206, 191.622 350.425, 192.603 354 C 194.005 359.106, 194.444 365.072, 194.649 381.810 C 194.889 401.321, 195.085 403.401, 196.971 406.454 C 198.104 408.287, 200.670 410.564, 202.672 411.514 C 205.274 412.749, 207.677 413.080, 211.102 412.674 C 213.737 412.362, 217.379 411.345, 219.196 410.413 C 221.013 409.481, 223.850 407.592, 225.500 406.215 C 227.150 404.837, 229.787 401.962, 231.359 399.825 C 232.932 397.687, 235.497 395.277, 237.059 394.469 C 238.622 393.661, 241.161 393.010, 242.700 393.022 C 244.240 393.034, 247.522 393.961, 249.993 395.082 C 252.464 396.203, 258.157 399.787, 262.644 403.047 C 267.131 406.307, 272.001 409.430, 273.466 409.987 C 274.931 410.544, 277.984 411, 280.249 411 C 282.515 411, 286.300 410.065, 288.661 408.922 C 291.022 407.779, 294.160 405.417, 295.635 403.672 C 297.110 401.927, 299.236 398.475, 300.361 396 C 302.187 391.981, 302.378 389.815, 302.148 375.750 C 302.006 367.087, 302.130 360, 302.424 360 C 302.719 360, 303.838 361.688, 304.912 363.750 C 305.986 365.813, 308.052 368.752, 309.503 370.283 C 310.954 371.813, 313.861 374.203, 315.962 375.594 C 318.359 377.180, 321.828 378.333, 325.273 378.689 C 329.771 379.153, 331.732 378.811, 336.131 376.797 C 339.084 375.444, 343.525 372.225, 346 369.642 C 348.475 367.059, 352.184 362.182, 354.242 358.804 C 356.301 355.427, 359.323 349.194, 360.958 344.953 C 362.593 340.713, 365.707 330.776, 367.877 322.872 C 370.047 314.967, 373.689 300.175, 375.969 290 C 378.249 279.825, 380.791 270.375, 381.618 269 C 382.445 267.625, 384.257 264.127, 385.644 261.227 C 387.535 257.276, 388.183 254.268, 388.229 249.227 C 388.263 245.527, 388.233 237.202, 388.163 230.727 C 388.059 221.129, 387.643 218.041, 385.908 214.009 C 384.738 211.288, 383.159 208.547, 382.400 207.917 C 381.641 207.287, 381.244 205.810, 381.520 204.636 C 381.795 203.461, 381.670 201.968, 381.243 201.318 C 380.815 200.668, 373.811 197.362, 365.678 193.973 C 355.116 189.571, 350.180 187.989, 348.403 188.435 C 347.034 188.779, 345.674 189.686, 345.380 190.451 C 344.970 191.520, 344.196 191.616, 342.038 190.864 L 339.230 189.885 340.674 185.192 C 341.529 182.412, 341.871 178.889, 341.514 176.546 C 341.183 174.372, 339.961 171.054, 338.799 169.175 C 337.637 167.295, 334.627 164.451, 332.109 162.854 C 329.591 161.257, 325.941 159.523, 323.998 159 C 322.055 158.476, 319.124 158.406, 317.483 158.843 C 315.842 159.280, 313.567 161.018, 312.427 162.704 L 310.354 165.771 309.196 161.442 C 308.559 159.061, 306.649 155.530, 304.951 153.596 C 303.252 151.662, 299.402 148.876, 296.393 147.404 C 292.728 145.611, 288.686 144.567, 284.146 144.243 C 279.177 143.887, 276.560 144.176, 274.335 145.327 C 272.666 146.190, 270.568 148.382, 269.673 150.198 C 268.089 153.411, 268.045 153.430, 268.023 150.886 C 268.010 149.449, 266.193 135.499, 263.985 119.886 C 261.776 104.274, 258.807 84.538, 257.387 76.029 C 255.966 67.521, 254.285 58.979, 253.652 57.048 C 252.841 54.578, 251.315 52.885, 248.500 51.334 C 246.300 50.123, 242.250 48.874, 239.500 48.560 C 236.266 48.190, 233.087 48.506, 230.500 49.452 M 230.328 52.897 C 228.033 53.962, 225.383 56.012, 224.439 57.453 C 222.902 59.799, 222.783 62.305, 223.305 81.287 C 223.626 92.954, 224.577 108.800, 225.420 116.500 C 226.262 124.200, 227.191 131.875, 227.484 133.556 C 227.936 136.145, 228.770 136.882, 232.953 138.386 C 235.668 139.362, 238.324 140.687, 238.856 141.330 C 239.388 141.974, 239.975 143.788, 240.162 145.363 C 240.468 147.953, 241.531 148.686, 251.357 153.079 C 257.328 155.749, 263.077 158.207, 264.131 158.542 C 265.849 159.087, 265.991 158.753, 265.504 155.325 C 265.205 153.221, 262.939 137.100, 260.468 119.500 C 257.997 101.900, 254.853 81.053, 253.481 73.173 C 252.110 65.293, 250.527 57.985, 249.964 56.933 C 249.401 55.881, 247.711 54.385, 246.207 53.607 C 244.704 52.830, 241.455 51.917, 238.987 51.578 C 235.657 51.121, 233.424 51.461, 230.328 52.897 M 156.020 81.752 C 154.106 82.713, 151.476 85.075, 150.175 87 C 148.079 90.104, 147.883 91.224, 148.448 96.895 C 148.799 100.412, 150.840 110.087, 152.985 118.395 C 155.129 126.703, 158.520 139.113, 160.520 145.972 C 162.520 152.832, 164.366 158.783, 164.621 159.196 C 164.876 159.609, 167.052 158.046, 169.456 155.723 C 171.860 153.400, 177.354 148.102, 181.664 143.948 C 185.974 139.795, 190.550 135.740, 191.833 134.937 L 194.167 133.477 185.969 114.489 C 181.461 104.045, 176.234 92.446, 174.355 88.713 C 172.044 84.123, 170.118 81.615, 168.404 80.963 C 167.010 80.434, 164.437 80.001, 162.685 80.002 C 160.933 80.002, 157.934 80.790, 156.020 81.752 M 207.627 131.706 C 207.282 132.051, 207 132.665, 207 133.071 C 207 133.477, 213.460 136.552, 221.355 139.905 C 229.251 143.257, 236.001 146, 236.355 146 C 236.710 146, 237 145.393, 237 144.651 C 237 143.882, 232.158 141.240, 225.750 138.511 C 219.563 135.877, 213.095 133.127, 211.377 132.400 C 209.659 131.674, 207.972 131.361, 207.627 131.706 M 211.671 143.821 L 208.968 146.643 213.889 149.831 C 216.596 151.585, 220.270 154.683, 222.054 156.714 C 223.838 158.746, 226.468 162.904, 227.899 165.954 C 230.097 170.641, 230.500 172.895, 230.500 180.500 C 230.500 188.156, 230.103 190.348, 227.840 195.175 C 226.376 198.296, 223.359 202.825, 221.133 205.239 C 218.908 207.654, 214.705 210.833, 211.794 212.304 C 208.882 213.776, 203.913 215.457, 200.750 216.041 C 196.707 216.786, 193.441 216.788, 189.750 216.045 C 186.863 215.465, 183.326 214.727, 181.892 214.405 C 179.478 213.864, 179.235 214.127, 178.625 217.942 C 178.263 220.209, 176.788 225.006, 175.349 228.602 L 172.731 235.140 176.299 238.820 C 178.261 240.844, 180.957 244.433, 182.289 246.795 L 184.711 251.090 186.356 248.580 C 187.260 247.200, 188 244.229, 188 241.978 C 188 239.727, 188.476 235.999, 189.059 233.693 C 189.641 231.387, 191.627 227.422, 193.472 224.883 C 195.662 221.869, 198.662 219.351, 202.110 217.633 C 205.868 215.760, 208.962 215, 212.830 215 C 215.821 215, 220.034 215.529, 222.193 216.176 C 224.352 216.823, 228.132 219.124, 230.593 221.291 C 233.054 223.457, 235.715 226.482, 236.506 228.012 C 237.298 229.543, 238.425 232.936, 239.012 235.552 C 239.785 239.003, 239.761 241.833, 238.925 245.863 C 238.291 248.917, 236.834 253.346, 235.688 255.705 L 233.605 259.993 235.609 262.678 C 236.712 264.155, 240.288 266.853, 243.557 268.673 C 246.826 270.494, 252.525 273.146, 256.222 274.568 C 259.918 275.990, 263.413 276.863, 263.988 276.508 C 264.562 276.153, 267.335 272.406, 270.150 268.181 C 272.964 263.956, 276.670 258.999, 278.384 257.165 C 280.098 255.330, 282.738 253.181, 284.251 252.389 C 285.763 251.596, 289.138 250.546, 291.751 250.055 C 294.401 249.556, 298.268 249.534, 300.500 250.003 C 302.700 250.466, 305.487 251.150, 306.693 251.524 C 308.669 252.136, 309.051 251.628, 310.568 246.352 C 311.493 243.133, 312.889 239.246, 313.670 237.712 C 314.451 236.179, 318.460 231.138, 322.578 226.509 C 328.479 219.876, 331.485 217.394, 336.761 214.796 C 342.647 211.898, 344.425 211.500, 351.478 211.500 C 355.890 211.500, 361.216 211.893, 363.314 212.373 L 367.127 213.246 366.814 208.896 L 366.500 204.545 353.079 198.845 L 339.658 193.145 337.460 197.888 C 336.252 200.496, 333.784 204.315, 331.976 206.374 C 330.169 208.433, 326.766 211.441, 324.414 213.059 C 321.970 214.740, 320.002 216.950, 319.820 218.217 C 319.644 219.436, 318.282 221.115, 316.792 221.948 C 314.334 223.323, 313.643 223.292, 309.292 221.605 C 306.657 220.583, 301.864 219.354, 298.642 218.873 C 295.421 218.392, 290.739 217.093, 288.238 215.987 C 285.737 214.881, 283.569 214.098, 283.420 214.247 C 283.271 214.396, 283.624 216.314, 284.204 218.509 C 285.042 221.682, 284.937 223.264, 283.690 226.228 C 282.809 228.320, 280.668 230.842, 278.810 231.974 C 276.990 233.084, 274.015 233.994, 272.200 233.996 C 270.386 233.998, 267.534 233.293, 265.863 232.429 C 263.982 231.456, 262.097 229.214, 260.915 226.541 C 259.609 223.589, 259.208 221.160, 259.645 218.862 C 259.998 217.013, 260.894 214.290, 261.637 212.811 C 262.380 211.332, 263.991 209.419, 265.217 208.561 C 266.442 207.702, 269.168 207, 271.273 207 L 275.102 207 272.622 203.749 C 271.258 201.961, 269.148 198.248, 267.932 195.499 C 266.280 191.764, 265.705 188.477, 265.658 182.500 C 265.624 178.100, 265.957 172.025, 266.400 169 L 267.205 163.500 260.852 160.656 C 257.359 159.092, 245.821 154.029, 235.213 149.406 C 224.606 144.783, 215.577 141, 215.150 141 C 214.723 141, 213.158 142.270, 211.671 143.821 M 188.223 148.021 C 185.870 148.507, 181.660 150.149, 178.867 151.669 C 176.074 153.189, 172.052 156.407, 169.928 158.819 C 167.804 161.232, 165.152 165.651, 164.033 168.640 C 162.915 171.629, 162 174.789, 162 175.661 C 162 176.534, 163.974 178.985, 166.386 181.108 C 168.798 183.232, 172.133 187.113, 173.796 189.734 C 175.460 192.355, 177.293 196.300, 177.870 198.500 C 178.447 200.700, 179.189 204.222, 179.519 206.326 C 180.025 209.550, 180.700 210.400, 183.810 211.730 C 186.045 212.685, 190.460 213.319, 195.008 213.338 C 200.965 213.362, 203.659 212.845, 208.053 210.833 C 211.099 209.439, 215.187 206.897, 217.138 205.184 C 219.088 203.472, 222.170 199.282, 223.987 195.873 C 226.475 191.205, 227.409 188.021, 227.770 182.971 C 228.114 178.169, 227.747 174.740, 226.478 170.884 C 225.504 167.923, 223.411 163.601, 221.826 161.280 C 220.242 158.959, 217.470 155.935, 215.668 154.560 C 213.865 153.185, 210.390 151.185, 207.945 150.115 C 205.500 149.045, 201.025 147.938, 198 147.653 C 194.975 147.369, 190.575 147.534, 188.223 148.021 M 274.535 149.250 C 272.359 151.151, 271.786 152.859, 270.846 160.250 C 270.036 166.617, 270.031 171.304, 270.825 177.459 C 271.426 182.111, 272.823 187.693, 273.931 189.864 C 275.038 192.035, 277.142 194.753, 278.607 195.905 C 280.634 197.500, 282.694 198, 287.234 198 C 290.581 198, 294.649 197.311, 296.506 196.430 C 298.853 195.316, 300.393 193.501, 301.810 190.180 C 302.908 187.606, 304.525 183.056, 305.403 180.068 C 306.281 177.081, 307 172.161, 307 169.134 C 307 165.625, 306.255 162.093, 304.944 159.384 C 303.589 156.585, 301.286 154.120, 298.194 152.158 C 295.612 150.520, 291.700 148.692, 289.500 148.096 C 287.300 147.499, 283.613 147.009, 281.306 147.006 C 278.381 147.002, 276.332 147.681, 274.535 149.250 M 190.123 159.980 C 188.266 160.431, 184.926 162.082, 182.700 163.650 C 180.474 165.217, 177.571 168.525, 176.249 171 C 174.281 174.683, 173.911 176.614, 174.212 181.633 C 174.486 186.197, 175.268 188.806, 177.268 191.828 C 178.746 194.062, 181.972 197.071, 184.437 198.516 C 187.848 200.515, 190.273 201.143, 194.583 201.143 C 198.584 201.143, 201.603 200.445, 204.865 198.767 C 207.996 197.155, 210.425 194.865, 212.412 191.651 C 214.363 188.495, 215.482 185.171, 215.760 181.706 C 216.105 177.404, 215.677 175.547, 213.295 171.015 C 211.236 167.100, 209.137 164.762, 205.956 162.845 C 203.505 161.367, 199.700 159.934, 197.500 159.660 C 195.300 159.386, 191.980 159.530, 190.123 159.980 M 284.450 163.407 C 282.773 164.137, 280.129 166.247, 278.574 168.094 C 275.814 171.374, 275.763 171.656, 276.392 179.977 C 276.747 184.665, 277.395 189.850, 277.833 191.500 C 278.417 193.699, 279.548 194.819, 282.065 195.694 C 283.954 196.350, 287.158 196.913, 289.185 196.944 C 291.212 196.975, 294.046 196.553, 295.483 196.006 C 297.002 195.429, 298.691 193.591, 299.515 191.617 C 300.296 189.750, 301.478 184.137, 302.143 179.144 C 303.030 172.483, 303.059 169.424, 302.252 167.653 C 301.533 166.077, 299.504 164.678, 296.398 163.620 C 293.783 162.729, 290.711 162.018, 289.572 162.039 C 288.432 162.061, 286.128 162.676, 284.450 163.407 M 315.598 163.545 C 314.748 164.395, 313.089 168.108, 311.911 171.795 C 310.733 175.483, 309.568 181.875, 309.323 186 C 308.948 192.287, 309.201 194.016, 310.886 196.689 C 312.219 198.803, 314.177 200.233, 316.698 200.933 C 318.789 201.514, 321.797 201.991, 323.382 201.994 C 325.377 201.998, 327.266 200.938, 329.517 198.550 C 331.307 196.653, 333.948 192.739, 335.386 189.854 C 337.280 186.051, 338 183.047, 338 178.939 C 338 174.628, 337.478 172.606, 335.821 170.499 C 334.622 168.975, 331.609 166.440, 329.125 164.864 C 326.233 163.030, 323.266 162, 320.876 162 C 318.823 162, 316.448 162.695, 315.598 163.545 M 284.207 166.668 C 282.396 167.561, 280.423 169.210, 279.821 170.334 C 279.128 171.629, 278.941 175.656, 279.310 181.348 C 279.694 187.283, 280.392 190.820, 281.371 191.799 C 282.185 192.613, 285.069 193.492, 287.780 193.753 C 290.490 194.013, 293.617 193.740, 294.727 193.146 C 295.927 192.504, 297.208 190.229, 297.885 187.543 C 298.511 185.055, 299.303 179.713, 299.645 175.672 L 300.266 168.324 296.113 166.662 C 293.829 165.748, 290.956 165.010, 289.730 165.023 C 288.503 165.035, 286.018 165.776, 284.207 166.668 M 189.020 167.703 C 187.106 168.692, 184.518 171.029, 183.270 172.898 C 181.828 175.056, 181.001 177.793, 181.004 180.398 C 181.006 182.698, 181.864 185.904, 182.956 187.696 C 184.028 189.453, 186.104 191.677, 187.570 192.638 C 189.153 193.675, 192.148 194.385, 194.944 194.385 C 198.236 194.385, 200.610 193.702, 202.841 192.113 C 204.595 190.864, 206.698 188.550, 207.515 186.971 C 208.332 185.391, 208.998 182.389, 208.996 180.300 C 208.994 178.210, 208.116 175.062, 207.044 173.304 C 205.972 171.547, 204.061 169.432, 202.798 168.605 C 201.534 167.778, 198.700 166.832, 196.500 166.504 C 193.665 166.081, 191.486 166.430, 189.020 167.703 M 320.667 177.153 C 318.704 177.894, 317.231 179.627, 315.872 182.799 C 314.793 185.316, 313.652 189.263, 313.335 191.570 C 312.788 195.566, 312.943 195.889, 316.612 198.383 C 318.731 199.822, 321.631 201, 323.058 201 C 324.484 201, 326.581 199.988, 327.717 198.750 C 328.853 197.512, 331.227 194.126, 332.993 191.224 C 335.257 187.504, 336.025 185.238, 335.599 183.540 C 335.267 182.216, 333.684 180.199, 332.082 179.058 C 330.479 177.917, 327.893 176.781, 326.334 176.534 C 324.775 176.286, 322.225 176.565, 320.667 177.153 M 321.915 179.657 C 321.044 179.891, 319.586 181.645, 318.675 183.555 C 317.764 185.465, 316.735 188.803, 316.388 190.972 C 315.783 194.758, 315.905 194.987, 319.433 196.669 C 322.147 197.964, 323.551 198.149, 324.804 197.377 C 325.737 196.802, 327.962 193.914, 329.750 190.960 C 331.538 188.006, 333 184.999, 333 184.280 C 333 183.560, 331.538 182.079, 329.750 180.989 C 327.962 179.899, 325.825 179.058, 325 179.120 C 324.175 179.181, 322.787 179.423, 321.915 179.657 M 153.569 191.107 C 149.956 197.214, 147 202.613, 147 203.105 C 147 203.597, 148.155 204, 149.566 204 C 150.977 204, 152.971 203.550, 153.998 203.001 C 155.025 202.452, 158.186 198.159, 161.023 193.463 C 165.315 186.356, 165.970 184.668, 164.923 183.407 C 164.231 182.573, 162.871 181.466, 161.901 180.947 C 160.394 180.140, 159.186 181.613, 153.569 191.107 M 239.073 182.635 C 237.933 184.084, 237 186.009, 237 186.912 C 237 187.816, 237.672 189.514, 238.493 190.686 C 239.314 191.859, 243.154 194.061, 247.026 195.580 L 254.065 198.342 256.783 196.313 C 258.926 194.713, 259.500 193.462, 259.500 190.392 C 259.500 186.599, 259.334 186.418, 253 183.274 C 249.425 181.499, 245.295 180.037, 243.823 180.024 C 242.102 180.008, 240.404 180.942, 239.073 182.635 M 241.040 184.452 C 240.377 185.251, 240.107 186.762, 240.440 187.812 C 240.804 188.959, 243.632 190.819, 247.531 192.476 C 252.797 194.714, 254.296 194.999, 255.508 193.993 C 256.329 193.312, 257 191.680, 257 190.365 C 257 188.423, 255.946 187.508, 251.376 185.487 C 248.282 184.119, 244.962 183, 243.998 183 C 243.034 183, 241.703 183.653, 241.040 184.452 M 163.662 194.187 C 161.112 198.280, 157.864 202.719, 156.445 204.051 C 154.417 205.957, 152.776 206.478, 148.765 206.487 L 143.664 206.500 138.234 217 C 134.871 223.504, 132.607 229.261, 132.286 232.128 C 131.941 235.211, 132.626 240.387, 134.338 247.628 C 135.752 253.608, 137.604 263.578, 138.454 269.784 C 139.304 275.991, 140.010 283.641, 140.022 286.784 C 140.035 290.244, 140.802 294.171, 141.965 296.732 C 143.022 299.059, 146.049 303.278, 148.693 306.107 C 151.337 308.936, 156.200 313.167, 159.500 315.509 C 162.800 317.852, 169.100 321.580, 173.500 323.795 C 177.900 326.009, 183.166 329.549, 185.203 331.661 C 187.240 333.772, 190.227 338.425, 191.842 342 C 193.457 345.575, 195.574 352.325, 196.546 357 C 197.885 363.440, 198.290 369.841, 198.213 383.409 C 198.134 397.575, 198.428 401.928, 199.623 404.237 C 200.470 405.876, 202.709 407.816, 204.724 408.658 C 207.618 409.867, 209.170 409.943, 212.728 409.047 C 215.156 408.436, 218.807 406.884, 220.843 405.599 C 222.878 404.314, 226.292 401.129, 228.429 398.521 C 230.566 395.913, 233.707 392.930, 235.407 391.893 C 237.108 390.856, 240.300 390.010, 242.500 390.014 C 244.700 390.017, 248.878 391.127, 251.785 392.480 C 254.692 393.833, 260.352 397.411, 264.364 400.430 C 268.375 403.449, 272.889 406.387, 274.394 406.960 C 275.899 407.532, 278.469 408, 280.105 408 C 281.741 408, 284.792 407.127, 286.885 406.059 C 288.977 404.991, 292.090 402.522, 293.803 400.572 C 295.515 398.622, 297.434 395.108, 298.068 392.763 C 298.831 389.940, 298.991 384.617, 298.543 377 C 298.087 369.257, 298.253 364.030, 299.051 361 C 299.702 358.525, 300.189 355.150, 300.131 353.500 C 300.074 351.850, 299.889 344.425, 299.720 337 C 299.495 327.144, 298.965 322.485, 297.753 319.739 C 296.840 317.671, 293.734 313.485, 290.852 310.437 C 287.969 307.388, 282.660 302.945, 279.055 300.562 C 275.450 298.179, 268.900 294.434, 264.500 292.240 C 260.100 290.046, 249.975 285.542, 242 282.232 C 234.025 278.922, 223 274.816, 217.500 273.109 C 212 271.401, 204.237 269.595, 200.250 269.096 C 196.262 268.596, 192.193 268.398, 191.207 268.656 C 189.660 269.061, 189.470 270.011, 189.823 275.563 C 190.153 280.751, 189.947 282, 188.760 282 C 187.641 282, 187.127 280.069, 186.616 273.952 C 186.247 269.525, 184.881 262.553, 183.581 258.458 C 182.280 254.363, 179.812 248.824, 178.097 246.151 C 176.381 243.477, 174.126 240.519, 173.086 239.578 C 171.272 237.936, 171.050 238.083, 167.616 243.183 C 165.648 246.108, 162.532 250.262, 160.691 252.416 C 158.717 254.725, 156.871 256.039, 156.191 255.618 C 155.422 255.143, 156.872 252.495, 160.525 247.702 C 163.543 243.741, 167.545 237.575, 169.417 234 C 171.289 230.425, 173.601 224.800, 174.556 221.500 C 175.510 218.200, 176.277 212.575, 176.261 209 C 176.242 204.824, 175.470 200.533, 174.104 197 C 172.934 193.975, 171.150 190.430, 170.139 189.123 L 168.300 186.746 163.662 194.187 M 348.698 191.636 C 348.314 192.019, 348 192.656, 348 193.050 C 348 193.444, 348.788 193.996, 349.750 194.276 C 350.712 194.555, 357.462 197.284, 364.750 200.340 C 375.675 204.921, 377.997 205.598, 377.981 204.198 C 377.967 202.968, 374.453 201.065, 365.231 197.293 C 358.229 194.430, 351.801 191.828, 350.948 191.512 C 350.094 191.196, 349.082 191.252, 348.698 191.636 M 301.514 209.629 C 300.618 210.525, 300.136 211.912, 300.442 212.711 C 300.749 213.510, 301 214.357, 301 214.594 C 301 214.831, 303.581 216.167, 306.736 217.562 C 310.150 219.072, 313.388 219.868, 314.736 219.530 C 316.426 219.106, 317 218.239, 317 216.112 C 317 213.580, 316.321 212.967, 310.934 210.631 C 307.598 209.184, 304.480 208, 304.006 208 C 303.531 208, 302.410 208.733, 301.514 209.629 M 267.229 210.669 C 266.530 210.951, 265.292 212.468, 264.479 214.041 C 263.666 215.614, 263 217.798, 263 218.895 C 263 219.991, 264.077 222.141, 265.394 223.672 C 267.308 225.896, 268.633 226.455, 272.001 226.455 C 275.210 226.455, 276.664 225.898, 278.107 224.116 C 279.205 222.760, 280 220.219, 280 218.064 C 280 215.473, 279.299 213.690, 277.686 212.174 C 276.181 210.761, 274.168 210.028, 271.936 210.079 C 270.046 210.122, 267.928 210.388, 267.229 210.669 M 341.332 215.791 C 338.490 216.806, 334.566 218.857, 332.611 220.347 C 330.657 221.838, 327.933 224.532, 326.559 226.334 C 325.184 228.136, 323.069 231.835, 321.858 234.555 C 320.217 238.241, 319.653 241.450, 319.644 247.155 C 319.633 253.772, 320.069 255.697, 322.858 261.363 C 324.744 265.195, 327.775 269.363, 330.156 271.401 C 332.395 273.318, 336.314 275.916, 338.864 277.174 C 342.654 279.043, 345.142 279.460, 352.500 279.460 C 359.858 279.460, 362.346 279.043, 366.136 277.174 C 368.686 275.916, 372.605 273.318, 374.844 271.401 C 377.225 269.363, 380.256 265.195, 382.142 261.363 C 384.926 255.707, 385.368 253.759, 385.368 247.147 C 385.368 241.041, 384.846 238.344, 382.799 233.872 C 381.386 230.785, 378.629 226.488, 376.673 224.323 C 374.716 222.157, 370.568 219.097, 367.455 217.521 C 363.044 215.290, 360.106 214.579, 354.147 214.301 C 348.522 214.040, 345.134 214.433, 341.332 215.791 M 205.202 219.049 C 203.939 219.556, 201.373 221.139, 199.501 222.567 C 197.629 223.995, 194.951 227.465, 193.549 230.278 C 192.071 233.243, 191.002 237.096, 191.006 239.446 C 191.009 241.676, 191.489 245.219, 192.072 247.321 C 192.656 249.422, 194.791 252.980, 196.817 255.227 C 198.842 257.474, 202.300 260.132, 204.500 261.134 C 206.722 262.146, 210.848 262.966, 213.782 262.978 C 216.687 262.990, 220.512 262.393, 222.282 261.652 C 224.052 260.910, 226.982 259.053, 228.794 257.526 C 230.605 255.998, 233.060 252.893, 234.249 250.624 C 235.765 247.730, 236.410 244.710, 236.410 240.500 C 236.410 236.321, 235.768 233.286, 234.296 230.500 C 233.134 228.300, 230.904 225.286, 229.342 223.803 C 227.779 222.320, 224.827 220.407, 222.782 219.553 C 220.737 218.699, 216.462 218.029, 213.282 218.063 C 210.102 218.098, 206.466 218.542, 205.202 219.049 M 357.284 218.701 C 356.065 218.937, 353.928 220.485, 352.534 222.142 C 350.746 224.267, 350 226.331, 350 229.154 C 350 232.242, 350.667 233.820, 352.923 236.077 C 355.180 238.333, 356.758 239, 359.846 239 C 362.666 239, 364.733 238.254, 366.850 236.473 C 368.502 235.083, 370.142 232.629, 370.496 231.020 C 370.910 229.132, 370.520 226.792, 369.397 224.424 C 368.282 222.075, 366.469 220.258, 364.360 219.377 C 362.547 218.620, 360.712 218.061, 360.282 218.136 C 359.852 218.211, 358.503 218.465, 357.284 218.701 M 212.853 225.599 C 210.942 229.920, 210.628 230.164, 207.659 229.646 C 205.922 229.343, 203.035 228.797, 201.244 228.433 C 198.137 227.801, 197.898 227.977, 195.989 232.291 C 194.890 234.777, 194.252 237.493, 194.572 238.328 C 194.892 239.162, 196.935 240.557, 199.111 241.428 C 201.287 242.298, 203.341 243.724, 203.675 244.596 C 204.010 245.468, 203.530 247.763, 202.608 249.696 C 201.686 251.629, 201.193 254.034, 201.513 255.040 C 201.832 256.047, 204.063 257.622, 206.470 258.542 C 208.877 259.461, 211.337 259.910, 211.937 259.539 C 212.538 259.168, 213.916 257.125, 215 255 C 216.084 252.875, 217.379 250.884, 217.878 250.576 C 218.376 250.268, 220.898 250.799, 223.481 251.757 C 228.178 253.497, 228.179 253.497, 230.102 251.122 C 231.160 249.816, 232.293 247.680, 232.621 246.376 C 232.948 245.072, 232.964 243.349, 232.657 242.547 C 232.349 241.746, 230.229 240.137, 227.946 238.972 C 224.082 237.001, 223.839 236.635, 224.445 233.677 C 224.802 231.930, 225.336 229.139, 225.631 227.475 C 226.109 224.772, 225.781 224.266, 222.549 222.725 C 220.560 221.776, 218.022 221, 216.910 221 C 215.468 221, 214.303 222.320, 212.853 225.599 M 357.896 222.628 C 357.838 223.107, 357.784 225.658, 357.775 228.296 C 357.766 230.934, 357.969 233.302, 358.226 233.559 C 358.483 233.816, 360.337 232.475, 362.346 230.580 C 364.356 228.685, 366 226.654, 366 226.067 C 366 225.480, 365.415 225, 364.700 225 C 363.985 225, 362.860 225.540, 362.200 226.200 C 361.267 227.133, 361 227.049, 361 225.822 C 361 224.955, 360.325 223.685, 359.500 223 C 358.675 222.315, 357.953 222.148, 357.896 222.628 M 329.110 230.396 C 327.796 231.124, 326.124 232.796, 325.396 234.110 C 324.667 235.425, 324.055 238.007, 324.035 239.850 C 324.009 242.354, 324.858 244.058, 327.400 246.600 C 330.041 249.241, 331.625 250, 334.500 250 C 337.375 250, 338.959 249.241, 341.600 246.600 C 344.241 243.959, 345 242.375, 345 239.500 C 345 236.625, 344.241 235.041, 341.600 232.400 C 339.058 229.858, 337.354 229.009, 334.850 229.035 C 333.007 229.055, 330.425 229.667, 329.110 230.396 M 332 235.759 C 332 237.453, 331.213 239.011, 329.961 239.792 C 328.840 240.492, 328.214 241.537, 328.570 242.114 C 328.927 242.690, 330.243 242.905, 331.495 242.591 C 333.231 242.155, 333.902 242.516, 334.319 244.110 C 334.639 245.335, 335.332 245.913, 335.992 245.505 C 336.611 245.122, 336.979 243.746, 336.809 242.448 C 336.621 241.009, 337.243 239.543, 338.403 238.695 C 339.454 237.926, 339.986 236.787, 339.592 236.149 C 339.101 235.354, 338.309 235.300, 337.050 235.973 C 335.600 236.749, 335.113 236.542, 334.704 234.976 C 334.420 233.889, 333.695 233, 333.094 233 C 332.492 233, 332 234.242, 332 235.759 M 366.500 244.945 C 365.400 245.396, 363.674 246.682, 362.665 247.804 C 361.656 248.927, 360.586 251.667, 360.287 253.894 C 359.799 257.534, 360.101 258.301, 363.272 261.472 C 366.140 264.340, 367.553 265, 370.823 265 C 373.982 265, 375.507 264.339, 377.923 261.923 C 380.339 259.507, 381 257.982, 381 254.823 C 381 251.581, 380.340 250.140, 377.600 247.400 C 375.260 245.060, 373.311 244.020, 371.350 244.063 C 369.782 244.098, 367.600 244.495, 366.500 244.945 M 366.634 253.250 C 365.057 257.264, 365.062 257.572, 366.732 258.794 C 367.704 259.506, 369.850 259.956, 371.500 259.794 C 373.944 259.554, 374.456 259.083, 374.262 257.250 C 374.131 256.012, 374.468 255, 375.012 255 C 375.555 255, 376 254.116, 376 253.035 C 376 251.955, 375.130 250.605, 374.066 250.035 C 373.002 249.466, 371.270 249, 370.217 249 C 368.894 249, 367.788 250.312, 366.634 253.250 M 291.500 252.898 C 289.850 253.320, 287.150 254.376, 285.500 255.243 C 283.850 256.111, 281.314 258.099, 279.864 259.661 C 278.414 261.222, 276.502 263.940, 275.614 265.700 C 274.635 267.643, 274 271.395, 274 275.245 C 274 280.625, 274.494 282.411, 277.250 287.001 C 279.757 291.176, 281.726 293.052, 285.864 295.207 C 289.613 297.159, 292.710 298, 296.146 298 C 298.851 298, 302.737 297.302, 304.782 296.449 C 306.827 295.596, 310.017 293.459, 311.872 291.699 C 313.727 289.940, 316.079 286.700, 317.100 284.500 C 318.153 282.230, 318.966 278.216, 318.978 275.218 C 318.990 272.313, 318.393 268.488, 317.652 266.718 C 316.910 264.948, 315.053 262.018, 313.526 260.206 C 311.998 258.395, 309.107 256.075, 307.101 255.051 C 305.095 254.028, 301.439 252.952, 298.977 252.660 C 296.514 252.369, 293.150 252.476, 291.500 252.898 M 337.879 257.816 C 335.335 260.090, 334.727 261.407, 334.727 264.644 C 334.727 266.849, 335.500 269.834, 336.446 271.277 C 337.391 272.719, 339.657 274.392, 341.481 274.994 C 343.306 275.596, 345.970 275.795, 347.402 275.435 C 348.834 275.076, 351.130 273.446, 352.503 271.814 C 354.255 269.732, 355 267.653, 355 264.846 C 355 261.758, 354.333 260.180, 352.077 257.923 C 349.806 255.652, 348.248 255, 345.093 255 C 342.052 255, 340.240 255.708, 337.879 257.816 M 369 256.531 C 369 257.339, 369.423 258, 369.941 258 C 370.459 258, 371.131 257.597, 371.435 257.105 C 371.740 256.612, 371.316 255.952, 370.494 255.636 C 369.587 255.288, 369 255.639, 369 256.531 M 291.684 260.437 C 289.585 261.192, 286.951 262.639, 285.831 263.653 C 284.712 264.666, 283.166 266.711, 282.398 268.198 C 281.629 269.684, 281 273.069, 281 275.718 C 281 279.195, 281.688 281.548, 283.473 284.175 C 285.097 286.565, 287.496 288.406, 290.464 289.539 C 293.414 290.666, 296.278 291.054, 298.717 290.658 C 300.772 290.325, 303.589 289.212, 304.977 288.184 C 306.364 287.157, 308.553 284.782, 309.839 282.908 C 311.761 280.108, 312.102 278.556, 311.753 274.209 C 311.497 271.018, 310.527 267.842, 309.310 266.209 C 308.199 264.719, 305.988 262.757, 304.395 261.849 C 302.803 260.941, 300.150 259.943, 298.500 259.631 C 296.850 259.320, 293.783 259.682, 291.684 260.437 M 341.164 263.617 C 339.475 265.666, 338.315 267.701, 338.586 268.138 C 338.856 268.576, 340.346 268.681, 341.897 268.371 C 344.243 267.901, 344.818 268.197, 345.325 270.136 C 345.721 271.649, 346.273 272.121, 346.900 271.483 C 347.431 270.942, 348.008 268.250, 348.182 265.500 C 348.466 261.039, 348.270 260.467, 346.367 260.196 C 344.905 259.987, 343.270 261.062, 341.164 263.617 M 293.500 264.719 C 292.400 264.987, 290.650 265.948, 289.612 266.853 C 288.574 267.759, 287.131 269.902, 286.405 271.615 C 285.424 273.932, 285.347 275.673, 286.105 278.417 C 286.779 280.860, 288.199 282.760, 290.311 284.048 C 292.065 285.118, 295.007 285.994, 296.850 285.996 C 299.329 285.999, 301.084 285.116, 303.600 282.600 C 306.298 279.902, 307 278.399, 307 275.323 C 307 273.190, 306.266 270.397, 305.369 269.117 C 304.472 267.836, 302.237 266.161, 300.401 265.394 C 298.566 264.627, 296.712 264.052, 296.282 264.116 C 295.852 264.180, 294.600 264.451, 293.500 264.719 M 330.709 281.852 C 328.786 283.858, 326.204 287.525, 324.972 290 C 323.740 292.475, 321.383 296.389, 319.734 298.698 C 318.085 301.006, 314.170 304.695, 311.034 306.895 C 307.898 309.095, 304.773 311.568, 304.090 312.392 C 303.231 313.426, 302.809 318.664, 302.724 329.351 C 302.626 341.524, 302.909 345.186, 304.050 346.566 C 304.848 347.530, 307.750 349.367, 310.500 350.649 C 313.250 351.931, 317.205 352.985, 319.290 352.990 C 321.374 352.996, 324.792 352.127, 326.885 351.059 C 328.977 349.991, 332.080 347.534, 333.779 345.599 C 335.479 343.663, 338.084 340.006, 339.570 337.471 C 341.055 334.937, 343.790 328.825, 345.648 323.889 C 347.505 318.953, 350.553 308.971, 352.420 301.707 C 354.288 294.443, 356.075 287.323, 356.393 285.883 C 356.965 283.296, 356.896 283.261, 350.219 282.784 C 346.506 282.518, 341.384 281.379, 338.837 280.252 L 334.207 278.204 330.709 281.852" stroke="none" fill="#1b3236" fill-rule="evenodd"/><path d="M 230.328 52.897 C 228.033 53.962, 225.383 56.012, 224.439 57.453 C 222.902 59.799, 222.783 62.305, 223.305 81.287 C 223.626 92.954, 224.577 108.800, 225.420 116.500 C 226.262 124.200, 227.191 131.875, 227.484 133.556 C 227.936 136.145, 228.770 136.882, 232.953 138.386 C 235.668 139.362, 238.324 140.687, 238.856 141.330 C 239.388 141.974, 239.975 143.788, 240.162 145.363 C 240.468 147.953, 241.531 148.686, 251.357 153.079 C 257.328 155.749, 263.077 158.207, 264.131 158.542 C 265.849 159.087, 265.991 158.753, 265.504 155.325 C 265.205 153.221, 262.939 137.100, 260.468 119.500 C 257.997 101.900, 254.853 81.053, 253.481 73.173 C 252.110 65.293, 250.527 57.985, 249.964 56.933 C 249.401 55.881, 247.711 54.385, 246.207 53.607 C 244.704 52.830, 241.455 51.917, 238.987 51.578 C 235.657 51.121, 233.424 51.461, 230.328 52.897 M 156.020 81.752 C 154.106 82.713, 151.476 85.075, 150.175 87 C 148.079 90.104, 147.883 91.224, 148.448 96.895 C 148.799 100.412, 150.840 110.087, 152.985 118.395 C 155.129 126.703, 158.520 139.113, 160.520 145.972 C 162.520 152.832, 164.366 158.783, 164.621 159.196 C 164.876 159.609, 167.052 158.046, 169.456 155.723 C 171.860 153.400, 177.354 148.102, 181.664 143.948 C 185.974 139.795, 190.550 135.740, 191.833 134.937 L 194.167 133.477 185.969 114.489 C 181.461 104.045, 176.234 92.446, 174.355 88.713 C 172.044 84.123, 170.118 81.615, 168.404 80.963 C 167.010 80.434, 164.437 80.001, 162.685 80.002 C 160.933 80.002, 157.934 80.790, 156.020 81.752 M 207.627 131.706 C 207.282 132.051, 207 132.665, 207 133.071 C 207 133.477, 213.460 136.552, 221.355 139.905 C 229.251 143.257, 236.001 146, 236.355 146 C 236.710 146, 237 145.393, 237 144.651 C 237 143.882, 232.158 141.240, 225.750 138.511 C 219.563 135.877, 213.095 133.127, 211.377 132.400 C 209.659 131.674, 207.972 131.361, 207.627 131.706 M 211.671 143.821 L 208.968 146.643 213.889 149.831 C 216.596 151.585, 220.270 154.683, 222.054 156.714 C 223.838 158.746, 226.468 162.904, 227.899 165.954 C 230.097 170.641, 230.500 172.895, 230.500 180.500 C 230.500 188.156, 230.103 190.348, 227.840 195.175 C 226.376 198.296, 223.359 202.825, 221.133 205.239 C 218.908 207.654, 214.705 210.833, 211.794 212.304 C 208.882 213.776, 203.913 215.457, 200.750 216.041 C 196.707 216.786, 193.441 216.788, 189.750 216.045 C 186.863 215.465, 183.326 214.727, 181.892 214.405 C 179.478 213.864, 179.235 214.127, 178.625 217.942 C 178.263 220.209, 176.788 225.006, 175.349 228.602 L 172.731 235.140 176.299 238.820 C 178.261 240.844, 180.957 244.433, 182.289 246.795 L 184.711 251.090 186.356 248.580 C 187.260 247.200, 188 244.229, 188 241.978 C 188 239.727, 188.476 235.999, 189.059 233.693 C 189.641 231.387, 191.627 227.422, 193.472 224.883 C 195.662 221.869, 198.662 219.351, 202.110 217.633 C 205.868 215.760, 208.962 215, 212.830 215 C 215.821 215, 220.034 215.529, 222.193 216.176 C 224.352 216.823, 228.132 219.124, 230.593 221.291 C 233.054 223.457, 235.715 226.482, 236.506 228.012 C 237.298 229.543, 238.425 232.936, 239.012 235.552 C 239.785 239.003, 239.761 241.833, 238.925 245.863 C 238.291 248.917, 236.834 253.346, 235.688 255.705 L 233.605 259.993 235.609 262.678 C 236.712 264.155, 240.288 266.853, 243.557 268.673 C 246.826 270.494, 252.525 273.146, 256.222 274.568 C 259.918 275.990, 263.413 276.863, 263.988 276.508 C 264.562 276.153, 267.335 272.406, 270.150 268.181 C 272.964 263.956, 276.670 258.999, 278.384 257.165 C 280.098 255.330, 282.738 253.181, 284.251 252.389 C 285.763 251.596, 289.138 250.546, 291.751 250.055 C 294.401 249.556, 298.268 249.534, 300.500 250.003 C 302.700 250.466, 305.487 251.150, 306.693 251.524 C 308.669 252.136, 309.051 251.628, 310.568 246.352 C 311.493 243.133, 312.889 239.246, 313.670 237.712 C 314.451 236.179, 318.460 231.138, 322.578 226.509 C 328.479 219.876, 331.485 217.394, 336.761 214.796 C 342.647 211.898, 344.425 211.500, 351.478 211.500 C 355.890 211.500, 361.216 211.893, 363.314 212.373 L 367.127 213.246 366.814 208.896 L 366.500 204.545 353.079 198.845 L 339.658 193.145 337.460 197.888 C 336.252 200.496, 333.784 204.315, 331.976 206.374 C 330.169 208.433, 326.766 211.441, 324.414 213.059 C 321.970 214.740, 320.002 216.950, 319.820 218.217 C 319.644 219.436, 318.282 221.115, 316.792 221.948 C 314.334 223.323, 313.643 223.292, 309.292 221.605 C 306.657 220.583, 301.864 219.354, 298.642 218.873 C 295.421 218.392, 290.739 217.093, 288.238 215.987 C 285.737 214.881, 283.569 214.098, 283.420 214.247 C 283.271 214.396, 283.624 216.314, 284.204 218.509 C 285.042 221.682, 284.937 223.264, 283.690 226.228 C 282.809 228.320, 280.668 230.842, 278.810 231.974 C 276.990 233.084, 274.015 233.994, 272.200 233.996 C 270.386 233.998, 267.534 233.293, 265.863 232.429 C 263.982 231.456, 262.097 229.214, 260.915 226.541 C 259.609 223.589, 259.208 221.160, 259.645 218.862 C 259.998 217.013, 260.894 214.290, 261.637 212.811 C 262.380 211.332, 263.991 209.419, 265.217 208.561 C 266.442 207.702, 269.168 207, 271.273 207 L 275.102 207 272.622 203.749 C 271.258 201.961, 269.148 198.248, 267.932 195.499 C 266.280 191.764, 265.705 188.477, 265.658 182.500 C 265.624 178.100, 265.957 172.025, 266.400 169 L 267.205 163.500 260.852 160.656 C 257.359 159.092, 245.821 154.029, 235.213 149.406 C 224.606 144.783, 215.577 141, 215.150 141 C 214.723 141, 213.158 142.270, 211.671 143.821 M 188.223 148.021 C 185.870 148.507, 181.660 150.149, 178.867 151.669 C 176.074 153.189, 172.052 156.407, 169.928 158.819 C 167.804 161.232, 165.152 165.651, 164.033 168.640 C 162.915 171.629, 162 174.789, 162 175.661 C 162 176.534, 163.974 178.985, 166.386 181.108 C 168.798 183.232, 172.133 187.113, 173.796 189.734 C 175.460 192.355, 177.293 196.300, 177.870 198.500 C 178.447 200.700, 179.189 204.222, 179.519 206.326 C 180.025 209.550, 180.700 210.400, 183.810 211.730 C 186.045 212.685, 190.460 213.319, 195.008 213.338 C 200.965 213.362, 203.659 212.845, 208.053 210.833 C 211.099 209.439, 215.187 206.897, 217.138 205.184 C 219.088 203.472, 222.170 199.282, 223.987 195.873 C 226.475 191.205, 227.409 188.021, 227.770 182.971 C 228.114 178.169, 227.747 174.740, 226.478 170.884 C 225.504 167.923, 223.411 163.601, 221.826 161.280 C 220.242 158.959, 217.470 155.935, 215.668 154.560 C 213.865 153.185, 210.390 151.185, 207.945 150.115 C 205.500 149.045, 201.025 147.938, 198 147.653 C 194.975 147.369, 190.575 147.534, 188.223 148.021 M 274.535 149.250 C 272.359 151.151, 271.786 152.859, 270.846 160.250 C 270.036 166.617, 270.031 171.304, 270.825 177.459 C 271.426 182.111, 272.823 187.693, 273.931 189.864 C 275.038 192.035, 277.142 194.753, 278.607 195.905 C 280.634 197.500, 282.694 198, 287.234 198 C 290.581 198, 294.649 197.311, 296.506 196.430 C 298.853 195.316, 300.393 193.501, 301.810 190.180 C 302.908 187.606, 304.525 183.056, 305.403 180.068 C 306.281 177.081, 307 172.161, 307 169.134 C 307 165.625, 306.255 162.093, 304.944 159.384 C 303.589 156.585, 301.286 154.120, 298.194 152.158 C 295.612 150.520, 291.700 148.692, 289.500 148.096 C 287.300 147.499, 283.613 147.009, 281.306 147.006 C 278.381 147.002, 276.332 147.681, 274.535 149.250 M 190.123 159.980 C 188.266 160.431, 184.926 162.082, 182.700 163.650 C 180.474 165.217, 177.571 168.525, 176.249 171 C 174.281 174.683, 173.911 176.614, 174.212 181.633 C 174.486 186.197, 175.268 188.806, 177.268 191.828 C 178.746 194.062, 181.972 197.071, 184.437 198.516 C 187.848 200.515, 190.273 201.143, 194.583 201.143 C 198.584 201.143, 201.603 200.445, 204.865 198.767 C 207.996 197.155, 210.425 194.865, 212.412 191.651 C 214.363 188.495, 215.482 185.171, 215.760 181.706 C 216.105 177.404, 215.677 175.547, 213.295 171.015 C 211.236 167.100, 209.137 164.762, 205.956 162.845 C 203.505 161.367, 199.700 159.934, 197.500 159.660 C 195.300 159.386, 191.980 159.530, 190.123 159.980 M 284.450 163.407 C 282.773 164.137, 280.129 166.247, 278.574 168.094 C 275.814 171.374, 275.763 171.656, 276.392 179.977 C 276.747 184.665, 277.395 189.850, 277.833 191.500 C 278.417 193.699, 279.548 194.819, 282.065 195.694 C 283.954 196.350, 287.158 196.913, 289.185 196.944 C 291.212 196.975, 294.046 196.553, 295.483 196.006 C 297.002 195.429, 298.691 193.591, 299.515 191.617 C 300.296 189.750, 301.478 184.137, 302.143 179.144 C 303.030 172.483, 303.059 169.424, 302.252 167.653 C 301.533 166.077, 299.504 164.678, 296.398 163.620 C 293.783 162.729, 290.711 162.018, 289.572 162.039 C 288.432 162.061, 286.128 162.676, 284.450 163.407 M 315.598 163.545 C 314.748 164.395, 313.089 168.108, 311.911 171.795 C 310.733 175.483, 309.568 181.875, 309.323 186 C 308.948 192.287, 309.201 194.016, 310.886 196.689 C 312.219 198.803, 314.177 200.233, 316.698 200.933 C 318.789 201.514, 321.797 201.991, 323.382 201.994 C 325.377 201.998, 327.266 200.938, 329.517 198.550 C 331.307 196.653, 333.948 192.739, 335.386 189.854 C 337.280 186.051, 338 183.047, 338 178.939 C 338 174.628, 337.478 172.606, 335.821 170.499 C 334.622 168.975, 331.609 166.440, 329.125 164.864 C 326.233 163.030, 323.266 162, 320.876 162 C 318.823 162, 316.448 162.695, 315.598 163.545 M 284.207 166.668 C 282.396 167.561, 280.423 169.210, 279.821 170.334 C 279.128 171.629, 278.941 175.656, 279.310 181.348 C 279.694 187.283, 280.392 190.820, 281.371 191.799 C 282.185 192.613, 285.069 193.492, 287.780 193.753 C 290.490 194.013, 293.617 193.740, 294.727 193.146 C 295.927 192.504, 297.208 190.229, 297.885 187.543 C 298.511 185.055, 299.303 179.713, 299.645 175.672 L 300.266 168.324 296.113 166.662 C 293.829 165.748, 290.956 165.010, 289.730 165.023 C 288.503 165.035, 286.018 165.776, 284.207 166.668 M 189.020 167.703 C 187.106 168.692, 184.518 171.029, 183.270 172.898 C 181.828 175.056, 181.001 177.793, 181.004 180.398 C 181.006 182.698, 181.864 185.904, 182.956 187.696 C 184.028 189.453, 186.104 191.677, 187.570 192.638 C 189.153 193.675, 192.148 194.385, 194.944 194.385 C 198.236 194.385, 200.610 193.702, 202.841 192.113 C 204.595 190.864, 206.698 188.550, 207.515 186.971 C 208.332 185.391, 208.998 182.389, 208.996 180.300 C 208.994 178.210, 208.116 175.062, 207.044 173.304 C 205.972 171.547, 204.061 169.432, 202.798 168.605 C 201.534 167.778, 198.700 166.832, 196.500 166.504 C 193.665 166.081, 191.486 166.430, 189.020 167.703 M 320.667 177.153 C 318.704 177.894, 317.231 179.627, 315.872 182.799 C 314.793 185.316, 313.652 189.263, 313.335 191.570 C 312.788 195.566, 312.943 195.889, 316.612 198.383 C 318.731 199.822, 321.631 201, 323.058 201 C 324.484 201, 326.581 199.988, 327.717 198.750 C 328.853 197.512, 331.227 194.126, 332.993 191.224 C 335.257 187.504, 336.025 185.238, 335.599 183.540 C 335.267 182.216, 333.684 180.199, 332.082 179.058 C 330.479 177.917, 327.893 176.781, 326.334 176.534 C 324.775 176.286, 322.225 176.565, 320.667 177.153 M 321.915 179.657 C 321.044 179.891, 319.586 181.645, 318.675 183.555 C 317.764 185.465, 316.735 188.803, 316.388 190.972 C 315.783 194.758, 315.905 194.987, 319.433 196.669 C 322.147 197.964, 323.551 198.149, 324.804 197.377 C 325.737 196.802, 327.962 193.914, 329.750 190.960 C 331.538 188.006, 333 184.999, 333 184.280 C 333 183.560, 331.538 182.079, 329.750 180.989 C 327.962 179.899, 325.825 179.058, 325 179.120 C 324.175 179.181, 322.787 179.423, 321.915 179.657 M 153.569 191.107 C 149.956 197.214, 147 202.613, 147 203.105 C 147 203.597, 148.155 204, 149.566 204 C 150.977 204, 152.971 203.550, 153.998 203.001 C 155.025 202.452, 158.186 198.159, 161.023 193.463 C 165.315 186.356, 165.970 184.668, 164.923 183.407 C 164.231 182.573, 162.871 181.466, 161.901 180.947 C 160.394 180.140, 159.186 181.613, 153.569 191.107 M 239.073 182.635 C 237.933 184.084, 237 186.009, 237 186.912 C 237 187.816, 237.672 189.514, 238.493 190.686 C 239.314 191.859, 243.154 194.061, 247.026 195.580 L 254.065 198.342 256.783 196.313 C 258.926 194.713, 259.500 193.462, 259.500 190.392 C 259.500 186.599, 259.334 186.418, 253 183.274 C 249.425 181.499, 245.295 180.037, 243.823 180.024 C 242.102 180.008, 240.404 180.942, 239.073 182.635 M 241.040 184.452 C 240.377 185.251, 240.107 186.762, 240.440 187.812 C 240.804 188.959, 243.632 190.819, 247.531 192.476 C 252.797 194.714, 254.296 194.999, 255.508 193.993 C 256.329 193.312, 257 191.680, 257 190.365 C 257 188.423, 255.946 187.508, 251.376 185.487 C 248.282 184.119, 244.962 183, 243.998 183 C 243.034 183, 241.703 183.653, 241.040 184.452 M 163.662 194.187 C 161.112 198.280, 157.864 202.719, 156.445 204.051 C 154.417 205.957, 152.776 206.478, 148.765 206.487 L 143.664 206.500 138.234 217 C 134.871 223.504, 132.607 229.261, 132.286 232.128 C 131.941 235.211, 132.626 240.387, 134.338 247.628 C 135.752 253.608, 137.604 263.578, 138.454 269.784 C 139.304 275.991, 140.010 283.641, 140.022 286.784 C 140.035 290.244, 140.802 294.171, 141.965 296.732 C 143.022 299.059, 146.049 303.278, 148.693 306.107 C 151.337 308.936, 156.200 313.167, 159.500 315.509 C 162.800 317.852, 169.100 321.580, 173.500 323.795 C 177.900 326.009, 183.166 329.549, 185.203 331.661 C 187.240 333.772, 190.227 338.425, 191.842 342 C 193.457 345.575, 195.574 352.325, 196.546 357 C 197.885 363.440, 198.290 369.841, 198.213 383.409 C 198.134 397.575, 198.428 401.928, 199.623 404.237 C 200.470 405.876, 202.709 407.816, 204.724 408.658 C 207.618 409.867, 209.170 409.943, 212.728 409.047 C 215.156 408.436, 218.807 406.884, 220.843 405.599 C 222.878 404.314, 226.292 401.129, 228.429 398.521 C 230.566 395.913, 233.707 392.930, 235.407 391.893 C 237.108 390.856, 240.300 390.010, 242.500 390.014 C 244.700 390.017, 248.878 391.127, 251.785 392.480 C 254.692 393.833, 260.352 397.411, 264.364 400.430 C 268.375 403.449, 272.889 406.387, 274.394 406.960 C 275.899 407.532, 278.469 408, 280.105 408 C 281.741 408, 284.792 407.127, 286.885 406.059 C 288.977 404.991, 292.090 402.522, 293.803 400.572 C 295.515 398.622, 297.434 395.108, 298.068 392.763 C 298.831 389.940, 298.991 384.617, 298.543 377 C 298.087 369.257, 298.253 364.030, 299.051 361 C 299.702 358.525, 300.189 355.150, 300.131 353.500 C 300.074 351.850, 299.889 344.425, 299.720 337 C 299.495 327.144, 298.965 322.485, 297.753 319.739 C 296.840 317.671, 293.734 313.485, 290.852 310.437 C 287.969 307.388, 282.660 302.945, 279.055 300.562 C 275.450 298.179, 268.900 294.434, 264.500 292.240 C 260.100 290.046, 249.975 285.542, 242 282.232 C 234.025 278.922, 223 274.816, 217.500 273.109 C 212 271.401, 204.237 269.595, 200.250 269.096 C 196.262 268.596, 192.193 268.398, 191.207 268.656 C 189.660 269.061, 189.470 270.011, 189.823 275.563 C 190.153 280.751, 189.947 282, 188.760 282 C 187.641 282, 187.127 280.069, 186.616 273.952 C 186.247 269.525, 184.881 262.553, 183.581 258.458 C 182.280 254.363, 179.812 248.824, 178.097 246.151 C 176.381 243.477, 174.126 240.519, 173.086 239.578 C 171.272 237.936, 171.050 238.083, 167.616 243.183 C 165.648 246.108, 162.532 250.262, 160.691 252.416 C 158.717 254.725, 156.871 256.039, 156.191 255.618 C 155.422 255.143, 156.872 252.495, 160.525 247.702 C 163.543 243.741, 167.545 237.575, 169.417 234 C 171.289 230.425, 173.601 224.800, 174.556 221.500 C 175.510 218.200, 176.277 212.575, 176.261 209 C 176.242 204.824, 175.470 200.533, 174.104 197 C 172.934 193.975, 171.150 190.430, 170.139 189.123 L 168.300 186.746 163.662 194.187 M 348.698 191.636 C 348.314 192.019, 348 192.656, 348 193.050 C 348 193.444, 348.788 193.996, 349.750 194.276 C 350.712 194.555, 357.462 197.284, 364.750 200.340 C 375.675 204.921, 377.997 205.598, 377.981 204.198 C 377.967 202.968, 374.453 201.065, 365.231 197.293 C 358.229 194.430, 351.801 191.828, 350.948 191.512 C 350.094 191.196, 349.082 191.252, 348.698 191.636 M 301.514 209.629 C 300.618 210.525, 300.136 211.912, 300.442 212.711 C 300.749 213.510, 301 214.357, 301 214.594 C 301 214.831, 303.581 216.167, 306.736 217.562 C 310.150 219.072, 313.388 219.868, 314.736 219.530 C 316.426 219.106, 317 218.239, 317 216.112 C 317 213.580, 316.321 212.967, 310.934 210.631 C 307.598 209.184, 304.480 208, 304.006 208 C 303.531 208, 302.410 208.733, 301.514 209.629 M 267.229 210.669 C 266.530 210.951, 265.292 212.468, 264.479 214.041 C 263.666 215.614, 263 217.798, 263 218.895 C 263 219.991, 264.077 222.141, 265.394 223.672 C 267.308 225.896, 268.633 226.455, 272.001 226.455 C 275.210 226.455, 276.664 225.898, 278.107 224.116 C 279.205 222.760, 280 220.219, 280 218.064 C 280 215.473, 279.299 213.690, 277.686 212.174 C 276.181 210.761, 274.168 210.028, 271.936 210.079 C 270.046 210.122, 267.928 210.388, 267.229 210.669 M 341.332 215.791 C 338.490 216.806, 334.566 218.857, 332.611 220.347 C 330.657 221.838, 327.933 224.532, 326.559 226.334 C 325.184 228.136, 323.069 231.835, 321.858 234.555 C 320.217 238.241, 319.653 241.450, 319.644 247.155 C 319.633 253.772, 320.069 255.697, 322.858 261.363 C 324.744 265.195, 327.775 269.363, 330.156 271.401 C 332.395 273.318, 336.314 275.916, 338.864 277.174 C 342.654 279.043, 345.142 279.460, 352.500 279.460 C 359.858 279.460, 362.346 279.043, 366.136 277.174 C 368.686 275.916, 372.605 273.318, 374.844 271.401 C 377.225 269.363, 380.256 265.195, 382.142 261.363 C 384.926 255.707, 385.368 253.759, 385.368 247.147 C 385.368 241.041, 384.846 238.344, 382.799 233.872 C 381.386 230.785, 378.629 226.488, 376.673 224.323 C 374.716 222.157, 370.568 219.097, 367.455 217.521 C 363.044 215.290, 360.106 214.579, 354.147 214.301 C 348.522 214.040, 345.134 214.433, 341.332 215.791 M 205.202 219.049 C 203.939 219.556, 201.373 221.139, 199.501 222.567 C 197.629 223.995, 194.951 227.465, 193.549 230.278 C 192.071 233.243, 191.002 237.096, 191.006 239.446 C 191.009 241.676, 191.489 245.219, 192.072 247.321 C 192.656 249.422, 194.791 252.980, 196.817 255.227 C 198.842 257.474, 202.300 260.132, 204.500 261.134 C 206.722 262.146, 210.848 262.966, 213.782 262.978 C 216.687 262.990, 220.512 262.393, 222.282 261.652 C 224.052 260.910, 226.982 259.053, 228.794 257.526 C 230.605 255.998, 233.060 252.893, 234.249 250.624 C 235.765 247.730, 236.410 244.710, 236.410 240.500 C 236.410 236.321, 235.768 233.286, 234.296 230.500 C 233.134 228.300, 230.904 225.286, 229.342 223.803 C 227.779 222.320, 224.827 220.407, 222.782 219.553 C 220.737 218.699, 216.462 218.029, 213.282 218.063 C 210.102 218.098, 206.466 218.542, 205.202 219.049 M 357.284 218.701 C 356.065 218.937, 353.928 220.485, 352.534 222.142 C 350.746 224.267, 350 226.331, 350 229.154 C 350 232.242, 350.667 233.820, 352.923 236.077 C 355.180 238.333, 356.758 239, 359.846 239 C 362.666 239, 364.733 238.254, 366.850 236.473 C 368.502 235.083, 370.142 232.629, 370.496 231.020 C 370.910 229.132, 370.520 226.792, 369.397 224.424 C 368.282 222.075, 366.469 220.258, 364.360 219.377 C 362.547 218.620, 360.712 218.061, 360.282 218.136 C 359.852 218.211, 358.503 218.465, 357.284 218.701 M 212.853 225.599 C 210.942 229.920, 210.628 230.164, 207.659 229.646 C 205.922 229.343, 203.035 228.797, 201.244 228.433 C 198.137 227.801, 197.898 227.977, 195.989 232.291 C 194.890 234.777, 194.252 237.493, 194.572 238.328 C 194.892 239.162, 196.935 240.557, 199.111 241.428 C 201.287 242.298, 203.341 243.724, 203.675 244.596 C 204.010 245.468, 203.530 247.763, 202.608 249.696 C 201.686 251.629, 201.193 254.034, 201.513 255.040 C 201.832 256.047, 204.063 257.622, 206.470 258.542 C 208.877 259.461, 211.337 259.910, 211.937 259.539 C 212.538 259.168, 213.916 257.125, 215 255 C 216.084 252.875, 217.379 250.884, 217.878 250.576 C 218.376 250.268, 220.898 250.799, 223.481 251.757 C 228.178 253.497, 228.179 253.497, 230.102 251.122 C 231.160 249.816, 232.293 247.680, 232.621 246.376 C 232.948 245.072, 232.964 243.349, 232.657 242.547 C 232.349 241.746, 230.229 240.137, 227.946 238.972 C 224.082 237.001, 223.839 236.635, 224.445 233.677 C 224.802 231.930, 225.336 229.139, 225.631 227.475 C 226.109 224.772, 225.781 224.266, 222.549 222.725 C 220.560 221.776, 218.022 221, 216.910 221 C 215.468 221, 214.303 222.320, 212.853 225.599 M 357.896 222.628 C 357.838 223.107, 357.784 225.658, 357.775 228.296 C 357.766 230.934, 357.969 233.302, 358.226 233.559 C 358.483 233.816, 360.337 232.475, 362.346 230.580 C 364.356 228.685, 366 226.654, 366 226.067 C 366 225.480, 365.415 225, 364.700 225 C 363.985 225, 362.860 225.540, 362.200 226.200 C 361.267 227.133, 361 227.049, 361 225.822 C 361 224.955, 360.325 223.685, 359.500 223 C 358.675 222.315, 357.953 222.148, 357.896 222.628 M 329.110 230.396 C 327.796 231.124, 326.124 232.796, 325.396 234.110 C 324.667 235.425, 324.055 238.007, 324.035 239.850 C 324.009 242.354, 324.858 244.058, 327.400 246.600 C 330.041 249.241, 331.625 250, 334.500 250 C 337.375 250, 338.959 249.241, 341.600 246.600 C 344.241 243.959, 345 242.375, 345 239.500 C 345 236.625, 344.241 235.041, 341.600 232.400 C 339.058 229.858, 337.354 229.009, 334.850 229.035 C 333.007 229.055, 330.425 229.667, 329.110 230.396 M 332 235.759 C 332 237.453, 331.213 239.011, 329.961 239.792 C 328.840 240.492, 328.214 241.537, 328.570 242.114 C 328.927 242.690, 330.243 242.905, 331.495 242.591 C 333.231 242.155, 333.902 242.516, 334.319 244.110 C 334.639 245.335, 335.332 245.913, 335.992 245.505 C 336.611 245.122, 336.979 243.746, 336.809 242.448 C 336.621 241.009, 337.243 239.543, 338.403 238.695 C 339.454 237.926, 339.986 236.787, 339.592 236.149 C 339.101 235.354, 338.309 235.300, 337.050 235.973 C 335.600 236.749, 335.113 236.542, 334.704 234.976 C 334.420 233.889, 333.695 233, 333.094 233 C 332.492 233, 332 234.242, 332 235.759 M 366.500 244.945 C 365.400 245.396, 363.674 246.682, 362.665 247.804 C 361.656 248.927, 360.586 251.667, 360.287 253.894 C 359.799 257.534, 360.101 258.301, 363.272 261.472 C 366.140 264.340, 367.553 265, 370.823 265 C 373.982 265, 375.507 264.339, 377.923 261.923 C 380.339 259.507, 381 257.982, 381 254.823 C 381 251.581, 380.340 250.140, 377.600 247.400 C 375.260 245.060, 373.311 244.020, 371.350 244.063 C 369.782 244.098, 367.600 244.495, 366.500 244.945 M 366.634 253.250 C 365.057 257.264, 365.062 257.572, 366.732 258.794 C 367.704 259.506, 369.850 259.956, 371.500 259.794 C 373.944 259.554, 374.456 259.083, 374.262 257.250 C 374.131 256.012, 374.468 255, 375.012 255 C 375.555 255, 376 254.116, 376 253.035 C 376 251.955, 375.130 250.605, 374.066 250.035 C 373.002 249.466, 371.270 249, 370.217 249 C 368.894 249, 367.788 250.312, 366.634 253.250 M 291.500 252.898 C 289.850 253.320, 287.150 254.376, 285.500 255.243 C 283.850 256.111, 281.314 258.099, 279.864 259.661 C 278.414 261.222, 276.502 263.940, 275.614 265.700 C 274.635 267.643, 274 271.395, 274 275.245 C 274 280.625, 274.494 282.411, 277.250 287.001 C 279.757 291.176, 281.726 293.052, 285.864 295.207 C 289.613 297.159, 292.710 298, 296.146 298 C 298.851 298, 302.737 297.302, 304.782 296.449 C 306.827 295.596, 310.017 293.459, 311.872 291.699 C 313.727 289.940, 316.079 286.700, 317.100 284.500 C 318.153 282.230, 318.966 278.216, 318.978 275.218 C 318.990 272.313, 318.393 268.488, 317.652 266.718 C 316.910 264.948, 315.053 262.018, 313.526 260.206 C 311.998 258.395, 309.107 256.075, 307.101 255.051 C 305.095 254.028, 301.439 252.952, 298.977 252.660 C 296.514 252.369, 293.150 252.476, 291.500 252.898 M 337.879 257.816 C 335.335 260.090, 334.727 261.407, 334.727 264.644 C 334.727 266.849, 335.500 269.834, 336.446 271.277 C 337.391 272.719, 339.657 274.392, 341.481 274.994 C 343.306 275.596, 345.970 275.795, 347.402 275.435 C 348.834 275.076, 351.130 273.446, 352.503 271.814 C 354.255 269.732, 355 267.653, 355 264.846 C 355 261.758, 354.333 260.180, 352.077 257.923 C 349.806 255.652, 348.248 255, 345.093 255 C 342.052 255, 340.240 255.708, 337.879 257.816 M 369 256.531 C 369 257.339, 369.423 258, 369.941 258 C 370.459 258, 371.131 257.597, 371.435 257.105 C 371.740 256.612, 371.316 255.952, 370.494 255.636 C 369.587 255.288, 369 255.639, 369 256.531 M 291.684 260.437 C 289.585 261.192, 286.951 262.639, 285.831 263.653 C 284.712 264.666, 283.166 266.711, 282.398 268.198 C 281.629 269.684, 281 273.069, 281 275.718 C 281 279.195, 281.688 281.548, 283.473 284.175 C 285.097 286.565, 287.496 288.406, 290.464 289.539 C 293.414 290.666, 296.278 291.054, 298.717 290.658 C 300.772 290.325, 303.589 289.212, 304.977 288.184 C 306.364 287.157, 308.553 284.782, 309.839 282.908 C 311.761 280.108, 312.102 278.556, 311.753 274.209 C 311.497 271.018, 310.527 267.842, 309.310 266.209 C 308.199 264.719, 305.988 262.757, 304.395 261.849 C 302.803 260.941, 300.150 259.943, 298.500 259.631 C 296.850 259.320, 293.783 259.682, 291.684 260.437 M 341.164 263.617 C 339.475 265.666, 338.315 267.701, 338.586 268.138 C 338.856 268.576, 340.346 268.681, 341.897 268.371 C 344.243 267.901, 344.818 268.197, 345.325 270.136 C 345.721 271.649, 346.273 272.121, 346.900 271.483 C 347.431 270.942, 348.008 268.250, 348.182 265.500 C 348.466 261.039, 348.270 260.467, 346.367 260.196 C 344.905 259.987, 343.270 261.062, 341.164 263.617 M 293.500 264.719 C 292.400 264.987, 290.650 265.948, 289.612 266.853 C 288.574 267.759, 287.131 269.902, 286.405 271.615 C 285.424 273.932, 285.347 275.673, 286.105 278.417 C 286.779 280.860, 288.199 282.760, 290.311 284.048 C 292.065 285.118, 295.007 285.994, 296.850 285.996 C 299.329 285.999, 301.084 285.116, 303.600 282.600 C 306.298 279.902, 307 278.399, 307 275.323 C 307 273.190, 306.266 270.397, 305.369 269.117 C 304.472 267.836, 302.237 266.161, 300.401 265.394 C 298.566 264.627, 296.712 264.052, 296.282 264.116 C 295.852 264.180, 294.600 264.451, 293.500 264.719 M 330.709 281.852 C 328.786 283.858, 326.204 287.525, 324.972 290 C 323.740 292.475, 321.383 296.389, 319.734 298.698 C 318.085 301.006, 314.170 304.695, 311.034 306.895 C 307.898 309.095, 304.773 311.568, 304.090 312.392 C 303.231 313.426, 302.809 318.664, 302.724 329.351 C 302.626 341.524, 302.909 345.186, 304.050 346.566 C 304.848 347.530, 307.750 349.367, 310.500 350.649 C 313.250 351.931, 317.205 352.985, 319.290 352.990 C 321.374 352.996, 324.792 352.127, 326.885 351.059 C 328.977 349.991, 332.080 347.534, 333.779 345.599 C 335.479 343.663, 338.084 340.006, 339.570 337.471 C 341.055 334.937, 343.790 328.825, 345.648 323.889 C 347.505 318.953, 350.553 308.971, 352.420 301.707 C 354.288 294.443, 356.075 287.323, 356.393 285.883 C 356.965 283.296, 356.896 283.261, 350.219 282.784 C 346.506 282.518, 341.384 281.379, 338.837 280.252 L 334.207 278.204 330.709 281.852 M 230.500 419.076 C 222.250 419.562, 210.550 420.669, 204.500 421.537 C 198.450 422.405, 190.125 423.788, 186 424.612 C 181.875 425.436, 174.675 427.243, 170 428.629 C 165.325 430.015, 157.870 432.888, 153.432 435.014 C 148.111 437.564, 143.941 440.425, 141.182 443.418 C 137.672 447.226, 137 448.623, 137 452.110 C 137 454.578, 137.848 457.636, 139.090 459.646 C 140.240 461.506, 143.159 464.389, 145.577 466.053 C 147.995 467.717, 153.017 470.371, 156.737 471.952 C 160.457 473.533, 167.550 475.979, 172.500 477.386 C 177.450 478.794, 186.675 480.840, 193 481.934 C 199.325 483.027, 208.775 484.364, 214 484.905 C 219.225 485.445, 230.700 486.181, 239.500 486.539 C 248.365 486.900, 263.527 486.696, 273.500 486.082 C 283.400 485.472, 297.313 484.077, 304.418 482.982 C 311.523 481.887, 321.812 479.860, 327.283 478.477 C 332.754 477.094, 340.556 474.577, 344.622 472.885 C 348.687 471.193, 354.384 468.246, 357.283 466.338 C 360.181 464.429, 363.553 461.407, 364.776 459.622 C 365.999 457.837, 367 454.919, 367 453.138 C 367 451.358, 366.365 448.686, 365.589 447.200 C 364.813 445.715, 362.901 443.322, 361.339 441.883 C 359.778 440.443, 356.470 438.101, 353.989 436.678 C 351.509 435.255, 346.479 432.961, 342.811 431.581 C 339.144 430.201, 331.724 427.971, 326.322 426.625 C 320.920 425.280, 312 423.467, 306.500 422.596 C 301 421.725, 291.775 420.586, 286 420.065 C 280.225 419.544, 268.750 418.909, 260.500 418.655 C 252.250 418.401, 238.750 418.590, 230.500 419.076" stroke="none" fill="#d2a084" fill-rule="evenodd"/></svg>